#!OML:ASF E:/inclinewalkrobotboard/Project1/Captureday1/Session1/subject1.ASF
:FULLY-SPECIFIED
:DEGREES
26
root 0 0 0 1.5398585034446248 -3.8677147616569023 1.8521982949221738
lowerback 12.23952593977859 0.9605208808904532 0.024807202064034584
upperback -4.446836553204514 1.216010082475678 -0.6309248598197267
thorax -11.735788505263987 0.5624589580538254 -0.9368384847193145
lowerneck -6.067284532790395 1.8661469871992538 4.773972240696242
upperneck 18.109786912004346 3.4990570358947046 -8.585412741984873
head 6.648113335012005 1.3077817925067405 -3.2799463154664723
rclavicle 2.161381376671684E-15 -7.076946367886912E-16
rhumerus 21.089334789911767 15.62891408389365 -47.8087279297482
rradius 73.27732302182045
rwrist 26.692849436484092
rhand -34.61510168583704 -57.180668732346966
rfingers 7.1250200000000286
rthumb -7.717438718445594 -87.14179887051726
lclavicle -7.398196865856815E-16 -7.495824608510369E-16
lhumerus 23.170836578081314 -14.455257194095815 44.745541078259265
lradius 71.8289611562237
lwrist -22.252958243817346
lhand -45.753771417515026 -71.95436630563682
lfingers 7.1250200000000286
lthumb -18.507849553059938 -42.73765667965954
rfemur -24.97903603612555 -1.9499867520544374 17.7781294416409
rtibia 50.6485972188604
rfoot -34.269137966607445 -18.291978647981416
rtoes -21.871647954637414
lfemur -28.082320915498443 2.142806498897905 -17.157060843313534
ltibia 50.8522371849199
lfoot -35.56583813169306 -0.2670067501356659
ltoes -22.094559143604613
27
root 0 0 0 1.540320354824066 -3.8697960558514377 1.851855975312172
lowerback 12.238317603281248 0.9618008263733281 0.025225018953174916
upperback -4.446707698115016 1.2176434611554157 -0.631328107160198
thorax -11.73484945912126 0.5632631993293895 -0.937636749350413
lowerneck -6.068198583644342 1.8658090970616372 4.773569267563434
upperneck 18.1113899500111 3.498417369587467 -8.584715445276048
head 6.648762990899005 1.3074978413244445 -3.27971153474048
rclavicle 2.16477853003474E-15 -7.070816415752446E-16
rhumerus 21.088003899361077 15.628512623766705 -47.809887859377156
rradius 73.2768822298208
rwrist 26.692095637097594
rhand -34.614667857638416 -57.17733986703008
rfingers 7.1250200000000286
rthumb -7.7165987328657515 -87.13910932976624
lclavicle -7.377747121055005E-16 -7.318169013272272E-16
lhumerus 23.16542107329677 -14.449609075571226 44.7451163159631
lradius 71.8246009653946
lwrist -22.254965862302633
lhand -45.75190838147006 -71.95288819615928
lfingers 7.1250200000000286
lthumb -18.50591477349292 -42.73627337752272
rfemur -24.97205929490108 -1.946713464592877 17.7802716622685
rtibia 50.63742783440203
rfoot -34.271247372086044 -18.29380391200464
rtoes -21.869117099451245
lfemur -28.080545688967256 2.1422722661269074 -17.15023655707043
ltibia 50.849951342762765
lfoot -35.53967799751662 -0.2733632047622563
ltoes -22.094421519287685
28
root 0 0 0 1.540231371322311 -3.8687598978394364 1.8516892028217002
lowerback 12.239086801557676 0.9610881435482156 0.025315063177584862
upperback -4.4467346749894245 1.2167822190248234 -0.6309821419800382
thorax -11.735362943220302 0.5628293900516685 -0.9372573833557669
lowerneck -6.067864906880548 1.8660687690429871 4.773835455124341
upperneck 18.110644715504446 3.498904979844502 -8.585281272575072
head 6.648479746704659 1.307699181334128 -3.279899208518658
rclavicle 2.1635984441663635E-15 -7.06803192916066E-16
rhumerus 21.08860749845295 15.628049728962784 -47.80834576952513
rradius 73.27672425294142
rwrist 26.693312648506183
rhand -34.61505188347963 -57.18054313898045
rfingers 7.1250200000000286
rthumb -7.717379730814201 -87.1415935173915
lclavicle -7.378386181583822E-16 -7.476335751366587E-16
lhumerus 23.16900062112986 -14.452574568305943 44.74512136692347
lradius 71.82686061413277
lwrist -22.25417215569385
lhand -45.75327191953569 -71.95468106089336
lfingers 7.1250200000000286
lthumb -18.507356189571333 -42.73806646268832
rfemur -24.967885557022566 -1.9495024386358635 17.780799200391545
rtibia 50.64663615859677
rfoot -34.271398007948264 -18.288055238022825
rtoes -21.880081857668706
lfemur -28.08346030527936 2.1393853047184015 -17.14962235342621
ltibia 50.848451430236054
lfoot -35.54986634903549 -0.27325070034337573
ltoes -22.10336685531655
29
root 0 0 0 1.5400821906128428 -3.868395324582985 1.8517913181889525
lowerback 12.239208122177835 0.9609258774382139 0.025226971433512158
upperback -4.446766655161678 1.2165658462113775 -0.6309604491736042
thorax -11.735486501739974 0.5627248175608714 -0.9371640776283023
lowerneck -6.067700012462475 1.8661018722166836 4.773918184733617
upperneck 18.110469201916437 3.4989682302888108 -8.585385283560997
head 6.648394960536278 1.3077288952248778 -3.2799393593174013
rclavicle 2.1607445820088706E-15 -7.081159129217987E-16
rhumerus 21.08822202935717 15.627363296917364 -47.80769476921123
rradius 73.27644066695797
rwrist 26.69391552530271
rhand -34.61513890816458 -57.18075497096975
rfingers 7.1250200000000286
rthumb -7.71747339483445 -87.14192808555293
lclavicle -7.402249068758643E-16 -7.488334920282123E-16
lhumerus 23.168877952394134 -14.45237819694555 44.74500336469468
lradius 71.8268596842199
lwrist -22.254324972943053
lhand -45.7533692436623 -71.95514309598587
lfingers 7.1250200000000286
lthumb -18.507443917828205 -42.73853035028921
rfemur -24.96643543030372 -1.950501969537525 17.7795118725478
rtibia 50.65244693952857
rfoot -34.26665394010716 -18.285916745595344
rtoes -21.88202447201778
lfemur -28.08123103310178 2.1402165074382102 -17.149438737794814
ltibia 50.85516985819789
lfoot -35.54193827564143 -0.27862256573353417
ltoes -22.103190432782043
30
root 0 0 0 1.539925518019488 -3.8681449129909744 1.8517838932991046
lowerback 12.239335513335485 0.9608073882193886 0.025240848944999394
upperback -4.446794222099933 1.2164187463462948 -0.6309167065401672
thorax -11.735602278381915 0.5626518191497142 -0.9371110617409539
lowerneck -6.067545372025946 1.8661452050055372 4.773998046883063
upperneck 18.110389732148256 3.4990423427946427 -8.585510316498365
head 6.648342171190717 1.3077594757465483 -3.279985714059131
rclavicle 2.1586706604465307E-15 -7.100539015594073E-16
rhumerus 21.087310129117277 15.625950582062908 -47.806537440692516
rradius 73.27570615002746
rwrist 26.695165745313453
rhand -34.61517963262045 -57.181320128007876
rfingers 7.1250200000000286
rthumb -7.717503723024816 -87.14244219323562
lclavicle -7.41535724151371E-16 -7.503906712916035E-16
lhumerus 23.16888570288539 -14.452182093409483 44.74488021767418
lradius 71.82678068402544
lwrist -22.254507495653712
lhand -45.75342100749121 -71.95561113846418
lfingers 7.1250200000000286
lthumb -18.507484577269526 -42.738970662316746
rfemur -24.967285643156274 -1.951468371691024 17.778068437128745
rtibia 50.6585150022779
rfoot -34.261839884866674 -18.285227340663983
rtoes -21.88027121371528
lfemur -28.080214817378717 2.1417810541190843 -17.149850028749093
ltibia 50.86549714578081
lfoot -35.53497450023713 -0.28394133080763595
ltoes -22.10139085829571
31
root 0 0 0 1.539808234785471 -3.8680027291524404 1.8518098884217875
lowerback 12.239425029109283 0.960737846234299 0.025236439400697475
upperback -4.44682021719935 1.2163303866900224 -0.630903159942824
thorax -11.735691294371751 0.5626083627935579 -0.9370844946215171
lowerneck -6.067433547421067 1.8661717186208684 4.774049042453478
upperneck 18.110365742161868 3.4990864897473895 -8.585587634615795
head 6.648315615686091 1.3077782653261991 -3.280014966945968
rclavicle 2.1580294151659497E-15 -7.106767211790717E-16
rhumerus 21.086841097883116 15.62526742713005 -47.80603481181245
rradius 73.27531512401745
rwrist 26.695701813872166
rhand -34.61517842799212 -57.181493240487164
rfingers 7.1250200000000286
rthumb -7.717501335680545 -87.1425835093319
lclavicle -7.419658518343951E-16 -7.509157653374369E-16
lhumerus 23.168908116500447 -14.452107263927681 44.744810170443586
lradius 71.82677359935914
lwrist -22.254607987225633
lhand -45.75346297649434 -71.95587464832093
lfingers 7.1250200000000286
lthumb -18.507523641073607 -42.739230420002144
rfemur -24.968743282594644 -1.9525200596762362 17.776521753367174
rtibia 50.66505278008182
rfoot -34.25733285825954 -18.28497414772552
rtoes -21.877551845579404
lfemur -28.079826898806665 2.143223172751999 -17.150710096394757
ltibia 50.87333718274475
lfoot -35.53110402772296 -0.2870695646391703
ltoes -22.09876596915437
